<mxfile host="Electron" agent="Mozilla/5.0 (Windows NT 10.0; Win64; x64) AppleWebKit/537.36 (KHTML, like Gecko) draw.io/24.7.17 Chrome/128.0.6613.36 Electron/32.0.1 Safari/537.36" version="24.7.17">
  <diagram name="Página-1" id="pbBZSOs9HZyIS6fHaoZZ">
    <mxGraphModel dx="1290" dy="1824" grid="1" gridSize="10" guides="1" tooltips="1" connect="1" arrows="1" fold="1" page="1" pageScale="1" pageWidth="827" pageHeight="1169" math="0" shadow="0">
      <root>
        <mxCell id="0" />
        <mxCell id="1" parent="0" />
        <mxCell id="7f381nLFTcUrIKu0PWZh-1" value="PROJECTES" style="rounded=0;whiteSpace=wrap;html=1;" parent="1" vertex="1">
          <mxGeometry x="390" y="-890" width="120" height="60" as="geometry" />
        </mxCell>
        <mxCell id="7f381nLFTcUrIKu0PWZh-2" value="&lt;div style=&quot;text-align: justify;&quot;&gt;&lt;b style=&quot;background-color: initial;&quot;&gt;PROFESSORS(&lt;/b&gt;&lt;u style=&quot;background-color: initial;&quot;&gt;codi&lt;/u&gt;&lt;span style=&quot;background-color: initial;&quot;&gt;, numero compte corrent, document identificació, nom, primer cognom, segon cognom, adreça&lt;/span&gt;&lt;b style=&quot;background-color: initial;&quot;&gt;)&lt;/b&gt;&lt;/div&gt;&lt;div&gt;&lt;div style=&quot;text-align: justify;&quot;&gt;&lt;b&gt;&lt;br&gt;&lt;/b&gt;&lt;/div&gt;&lt;div style=&quot;text-align: justify;&quot;&gt;&lt;b&gt;ALUMNES(&lt;/b&gt;&lt;u&gt;RALC&lt;/u&gt;, nom, primer cognom, segon cognom, DNI, adreça, especialitat, data matricula&lt;b&gt;)&lt;br&gt;&lt;/b&gt;&lt;/div&gt;&lt;div style=&quot;text-align: justify;&quot;&gt;&lt;b&gt;&lt;br&gt;&lt;/b&gt;&lt;/div&gt;&lt;div style=&quot;text-align: justify;&quot;&gt;&lt;b&gt;ESPECIALITATS(&lt;/b&gt;&lt;u&gt;codi&lt;/u&gt;, nom, descripció&lt;b&gt;)&lt;/b&gt;&lt;/div&gt;&lt;div style=&quot;text-align: justify;&quot;&gt;&lt;b&gt;&lt;br&gt;&lt;/b&gt;&lt;/div&gt;&lt;div style=&quot;text-align: justify;&quot;&gt;&lt;b&gt;TITULACIONS(&lt;/b&gt;&lt;u&gt;codi&lt;/u&gt;, nom, descripció&lt;b&gt;)&lt;/b&gt;&lt;/div&gt;&lt;div style=&quot;text-align: justify;&quot;&gt;&lt;b&gt;&lt;br&gt;&lt;/b&gt;&lt;/div&gt;&lt;div style=&quot;text-align: justify;&quot;&gt;&lt;b&gt;PROJECTES(&lt;/b&gt;&lt;u&gt;titol de l&#39;obra&lt;/u&gt;, data d&#39;estrena, qualificació&lt;b&gt;)&lt;/b&gt;&lt;/div&gt;&lt;div style=&quot;text-align: justify;&quot;&gt;&lt;b&gt;&lt;br&gt;&lt;/b&gt;&lt;/div&gt;&lt;div style=&quot;text-align: justify;&quot;&gt;&lt;b&gt;&lt;br&gt;&lt;/b&gt;&lt;/div&gt;&lt;/div&gt;" style="rounded=0;whiteSpace=wrap;html=1;align=left;horizontal=1;verticalAlign=top;" parent="1" vertex="1">
          <mxGeometry x="260" y="-1120" width="540" height="170" as="geometry" />
        </mxCell>
        <mxCell id="7f381nLFTcUrIKu0PWZh-3" value="TITULACIONS" style="rounded=0;whiteSpace=wrap;html=1;" parent="1" vertex="1">
          <mxGeometry y="-1150" width="120" height="60" as="geometry" />
        </mxCell>
        <mxCell id="7f381nLFTcUrIKu0PWZh-4" value="ALUMNES" style="rounded=0;whiteSpace=wrap;html=1;" parent="1" vertex="1">
          <mxGeometry x="200" y="-710" width="120" height="60" as="geometry" />
        </mxCell>
        <mxCell id="7f381nLFTcUrIKu0PWZh-5" value="PROFESSORS" style="rounded=0;whiteSpace=wrap;html=1;" parent="1" vertex="1">
          <mxGeometry y="-890" width="120" height="60" as="geometry" />
        </mxCell>
        <mxCell id="7f381nLFTcUrIKu0PWZh-6" value="tenir" style="rhombus;whiteSpace=wrap;html=1;" parent="1" vertex="1">
          <mxGeometry x="20" y="-1030" width="80" height="80" as="geometry" />
        </mxCell>
        <mxCell id="7f381nLFTcUrIKu0PWZh-7" value="" style="endArrow=none;html=1;rounded=0;entryX=0.5;entryY=1;entryDx=0;entryDy=0;exitX=0.5;exitY=0;exitDx=0;exitDy=0;" parent="1" source="7f381nLFTcUrIKu0PWZh-6" target="7f381nLFTcUrIKu0PWZh-3" edge="1">
          <mxGeometry width="50" height="50" relative="1" as="geometry">
            <mxPoint x="240" y="-940" as="sourcePoint" />
            <mxPoint x="290" y="-990" as="targetPoint" />
          </mxGeometry>
        </mxCell>
        <mxCell id="7f381nLFTcUrIKu0PWZh-8" value="" style="endArrow=none;html=1;rounded=0;exitX=0.5;exitY=1;exitDx=0;exitDy=0;entryX=0.5;entryY=0;entryDx=0;entryDy=0;" parent="1" source="7f381nLFTcUrIKu0PWZh-6" target="7f381nLFTcUrIKu0PWZh-5" edge="1">
          <mxGeometry width="50" height="50" relative="1" as="geometry">
            <mxPoint x="240" y="-940" as="sourcePoint" />
            <mxPoint x="290" y="-990" as="targetPoint" />
          </mxGeometry>
        </mxCell>
        <mxCell id="7f381nLFTcUrIKu0PWZh-9" value="participar" style="rhombus;whiteSpace=wrap;html=1;" parent="1" vertex="1">
          <mxGeometry x="220" y="-900" width="80" height="80" as="geometry" />
        </mxCell>
        <mxCell id="7f381nLFTcUrIKu0PWZh-10" value="" style="endArrow=none;html=1;rounded=0;exitX=1;exitY=0.5;exitDx=0;exitDy=0;entryX=0;entryY=0.5;entryDx=0;entryDy=0;" parent="1" source="7f381nLFTcUrIKu0PWZh-5" target="7f381nLFTcUrIKu0PWZh-9" edge="1">
          <mxGeometry width="50" height="50" relative="1" as="geometry">
            <mxPoint x="270" y="-980" as="sourcePoint" />
            <mxPoint x="170" y="-830" as="targetPoint" />
          </mxGeometry>
        </mxCell>
        <mxCell id="7f381nLFTcUrIKu0PWZh-11" value="" style="endArrow=none;html=1;rounded=0;entryX=0;entryY=0.5;entryDx=0;entryDy=0;exitX=1;exitY=0.5;exitDx=0;exitDy=0;" parent="1" source="7f381nLFTcUrIKu0PWZh-9" target="7f381nLFTcUrIKu0PWZh-1" edge="1">
          <mxGeometry width="50" height="50" relative="1" as="geometry">
            <mxPoint x="270" y="-980" as="sourcePoint" />
            <mxPoint x="320" y="-1030" as="targetPoint" />
          </mxGeometry>
        </mxCell>
        <mxCell id="7f381nLFTcUrIKu0PWZh-12" value="" style="endArrow=none;html=1;rounded=0;exitX=0.5;exitY=0;exitDx=0;exitDy=0;entryX=0.5;entryY=1;entryDx=0;entryDy=0;" parent="1" source="7f381nLFTcUrIKu0PWZh-4" target="7f381nLFTcUrIKu0PWZh-9" edge="1">
          <mxGeometry width="50" height="50" relative="1" as="geometry">
            <mxPoint x="270" y="-980" as="sourcePoint" />
            <mxPoint x="320" y="-1030" as="targetPoint" />
          </mxGeometry>
        </mxCell>
        <mxCell id="7f381nLFTcUrIKu0PWZh-13" value="dirigir" style="rhombus;whiteSpace=wrap;html=1;" parent="1" vertex="1">
          <mxGeometry x="100" y="-650" width="80" height="80" as="geometry" />
        </mxCell>
        <mxCell id="7f381nLFTcUrIKu0PWZh-14" value="" style="endArrow=none;html=1;rounded=0;entryX=0;entryY=0.5;entryDx=0;entryDy=0;" parent="1" target="7f381nLFTcUrIKu0PWZh-4" edge="1">
          <mxGeometry width="50" height="50" relative="1" as="geometry">
            <mxPoint x="140" y="-680" as="sourcePoint" />
            <mxPoint x="330" y="-660" as="targetPoint" />
          </mxGeometry>
        </mxCell>
        <mxCell id="7f381nLFTcUrIKu0PWZh-15" value="" style="endArrow=none;html=1;rounded=0;exitX=0.5;exitY=0;exitDx=0;exitDy=0;" parent="1" source="7f381nLFTcUrIKu0PWZh-13" edge="1">
          <mxGeometry width="50" height="50" relative="1" as="geometry">
            <mxPoint x="230" y="-610" as="sourcePoint" />
            <mxPoint x="140" y="-680" as="targetPoint" />
          </mxGeometry>
        </mxCell>
        <mxCell id="7f381nLFTcUrIKu0PWZh-16" value="" style="endArrow=none;html=1;rounded=0;entryX=0.5;entryY=1;entryDx=0;entryDy=0;" parent="1" target="7f381nLFTcUrIKu0PWZh-4" edge="1">
          <mxGeometry width="50" height="50" relative="1" as="geometry">
            <mxPoint x="260" y="-550" as="sourcePoint" />
            <mxPoint x="280" y="-660" as="targetPoint" />
          </mxGeometry>
        </mxCell>
        <mxCell id="7f381nLFTcUrIKu0PWZh-17" value="" style="endArrow=none;html=1;rounded=0;" parent="1" edge="1">
          <mxGeometry width="50" height="50" relative="1" as="geometry">
            <mxPoint x="140" y="-550" as="sourcePoint" />
            <mxPoint x="260" y="-550" as="targetPoint" />
          </mxGeometry>
        </mxCell>
        <mxCell id="7f381nLFTcUrIKu0PWZh-18" value="" style="endArrow=none;html=1;rounded=0;exitX=0.5;exitY=1;exitDx=0;exitDy=0;" parent="1" source="7f381nLFTcUrIKu0PWZh-13" edge="1">
          <mxGeometry width="50" height="50" relative="1" as="geometry">
            <mxPoint x="230" y="-610" as="sourcePoint" />
            <mxPoint x="140" y="-550" as="targetPoint" />
          </mxGeometry>
        </mxCell>
        <mxCell id="7f381nLFTcUrIKu0PWZh-23" value="1:N" style="text;html=1;align=center;verticalAlign=middle;whiteSpace=wrap;rounded=0;" parent="1" vertex="1">
          <mxGeometry x="10" y="-1090" width="60" height="30" as="geometry" />
        </mxCell>
        <mxCell id="7f381nLFTcUrIKu0PWZh-24" value="0:M" style="text;html=1;align=center;verticalAlign=middle;whiteSpace=wrap;rounded=0;" parent="1" vertex="1">
          <mxGeometry x="10" y="-920" width="60" height="30" as="geometry" />
        </mxCell>
        <mxCell id="7f381nLFTcUrIKu0PWZh-25" value="1:N" style="text;html=1;align=center;verticalAlign=middle;whiteSpace=wrap;rounded=0;" parent="1" vertex="1">
          <mxGeometry x="110" y="-890" width="60" height="30" as="geometry" />
        </mxCell>
        <mxCell id="7f381nLFTcUrIKu0PWZh-26" value="1:M" style="text;html=1;align=center;verticalAlign=middle;whiteSpace=wrap;rounded=0;" parent="1" vertex="1">
          <mxGeometry x="340" y="-890" width="60" height="30" as="geometry" />
        </mxCell>
        <mxCell id="7f381nLFTcUrIKu0PWZh-27" value="1:N" style="text;html=1;align=center;verticalAlign=middle;whiteSpace=wrap;rounded=0;" parent="1" vertex="1">
          <mxGeometry x="250" y="-740" width="60" height="30" as="geometry" />
        </mxCell>
        <mxCell id="7f381nLFTcUrIKu0PWZh-28" value="1" style="text;html=1;align=center;verticalAlign=middle;whiteSpace=wrap;rounded=0;" parent="1" vertex="1">
          <mxGeometry x="340" y="-860" width="60" height="30" as="geometry" />
        </mxCell>
        <mxCell id="7f381nLFTcUrIKu0PWZh-31" value="1:N" style="text;html=1;align=center;verticalAlign=middle;whiteSpace=wrap;rounded=0;" parent="1" vertex="1">
          <mxGeometry x="210" y="-650" width="60" height="30" as="geometry" />
        </mxCell>
        <mxCell id="7f381nLFTcUrIKu0PWZh-32" value="1:1" style="text;html=1;align=center;verticalAlign=middle;whiteSpace=wrap;rounded=0;" parent="1" vertex="1">
          <mxGeometry x="150" y="-710" width="60" height="30" as="geometry" />
        </mxCell>
        <mxCell id="3tiB3frOgCfPzy-2FGAQ-1" value="director" style="text;html=1;align=center;verticalAlign=middle;whiteSpace=wrap;rounded=0;" vertex="1" parent="1">
          <mxGeometry x="140" y="-680" width="60" height="30" as="geometry" />
        </mxCell>
        <mxCell id="3tiB3frOgCfPzy-2FGAQ-2" value="actor" style="text;html=1;align=center;verticalAlign=middle;whiteSpace=wrap;rounded=0;" vertex="1" parent="1">
          <mxGeometry x="210" y="-625" width="60" height="30" as="geometry" />
        </mxCell>
      </root>
    </mxGraphModel>
  </diagram>
</mxfile>
